<svg width="23" height="15" viewBox="0 0 23 15" fill="none" xmlns="http://www.w3.org/2000/svg">
<path d="M6.443 0.350098C7.082 0.350098 7.673 0.400098 8.213 0.548098C8.754 0.647098 9.197 0.845098 9.59 1.0921C9.984 1.33943 10.279 1.68576 10.475 2.1311C10.672 2.5761 10.771 3.1211 10.771 3.7141C10.771 4.4071 10.623 5.0001 10.279 5.4451C9.984 5.8911 9.492 6.2861 8.902 6.5831C9.738 6.8311 10.377 7.2761 10.771 7.8691C11.165 8.4621 11.41 9.2051 11.41 10.0461C11.41 10.7391 11.262 11.3321 11.016 11.8271C10.771 12.3221 10.377 12.7671 9.934 13.0641C9.45258 13.3821 8.9207 13.6161 8.361 13.7561C7.771 13.9051 7.181 14.0041 6.591 14.0041H0V0.350098H6.443ZM6.049 5.8901C6.59 5.8901 7.033 5.7421 7.377 5.4951C7.721 5.2481 7.869 4.8021 7.869 4.2581C7.869 3.9611 7.819 3.6641 7.721 3.4671C7.623 3.2701 7.475 3.1201 7.279 2.9721C7.0786 2.85954 6.86306 2.77636 6.639 2.7251C6.393 2.6751 6.148 2.6751 5.852 2.6751H3V5.8911L6.049 5.8901ZM6.197 11.7281C6.492 11.7281 6.787 11.6781 7.033 11.6291C7.279 11.5791 7.525 11.4811 7.721 11.3321C7.9206 11.1865 8.08808 11.0013 8.213 10.7881C8.311 10.5411 8.41 10.2441 8.41 9.8981C8.41 9.2051 8.213 8.7101 7.82 8.3641C7.426 8.0671 6.885 7.9191 6.246 7.9191H3V11.7291L6.197 11.7281ZM15.689 11.6781C16.0823 12.0741 16.6723 12.2721 17.459 12.2721C18 12.2721 18.492 12.1241 18.885 11.8771C19.279 11.5798 19.525 11.2828 19.623 10.9861H22.033C21.639 12.1731 21.049 13.0141 20.263 13.5581C19.475 14.0531 18.541 14.3501 17.41 14.3501C16.6865 14.3512 15.9691 14.2169 15.295 13.9541C14.6881 13.7278 14.1472 13.3538 13.721 12.8661C13.2633 12.4114 12.9256 11.8504 12.738 11.2331C12.492 10.5901 12.393 9.8981 12.393 9.1061C12.393 8.3641 12.492 7.6721 12.738 7.0281C12.974 6.40769 13.3244 5.83713 13.771 5.3461C14.213 4.9011 14.754 4.5061 15.344 4.2581C16.0008 3.9944 16.7023 3.85994 17.41 3.8621C18.246 3.8621 18.984 4.0111 19.623 4.3571C20.263 4.7031 20.754 5.0991 21.147 5.6931C21.541 6.2371 21.837 6.8801 22.033 7.5731C22.131 8.2651 22.18 8.9581 22.131 9.7491H15C15 10.5411 15.295 11.2831 15.689 11.6791M18.787 6.4851C18.443 6.1391 17.902 5.9411 17.262 5.9411C16.8867 5.93547 16.5156 6.02019 16.18 6.1881C15.885 6.3371 15.689 6.5351 15.492 6.7331C15.3098 6.92356 15.1899 7.16489 15.148 7.4251C15.098 7.6731 15.049 7.8701 15.049 8.0681H19.475C19.377 7.3261 19.131 6.8321 18.787 6.4851ZM14.459 1.2901H19.967V2.6261H14.46L14.459 1.2901Z" fill="#0A0F0D"/>
</svg>
