<svg width="22" height="22" viewBox="0 0 22 22" fill="none" xmlns="http://www.w3.org/2000/svg">
<path d="M1 9.88889C1 5.69889 1 3.60333 2.30222 2.30222C3.60444 1.00111 5.69889 1 9.88889 1H12.1111C16.3011 1 18.3967 1 19.6978 2.30222C20.9989 3.60444 21 5.69889 21 9.88889V12.1111C21 16.3011 21 18.3967 19.6978 19.6978C18.3956 20.9989 16.3011 21 12.1111 21H9.88889C5.69889 21 3.60333 21 2.30222 19.6978C1.00111 18.3956 1 16.3011 1 12.1111V9.88889Z" stroke="#0A0F0D" stroke-width="2"/>
<path d="M15.9999 7.66634C16.9204 7.66634 17.6666 6.92015 17.6666 5.99967C17.6666 5.0792 16.9204 4.33301 15.9999 4.33301C15.0794 4.33301 14.3333 5.0792 14.3333 5.99967C14.3333 6.92015 15.0794 7.66634 15.9999 7.66634Z" fill="#0A0F0D"/>
<path d="M11.0001 14.3337C12.841 14.3337 14.3334 12.8413 14.3334 11.0003C14.3334 9.15938 12.841 7.66699 11.0001 7.66699C9.15913 7.66699 7.66675 9.15938 7.66675 11.0003C7.66675 12.8413 9.15913 14.3337 11.0001 14.3337Z" stroke="#0A0F0D" stroke-width="2"/>
</svg>
