<svg width="16" height="16" viewBox="0 0 16 16" fill="none" xmlns="http://www.w3.org/2000/svg">
<g clip-path="url(#clip0_9_121)">
<path d="M12.4375 7.83187L9.31996 6.6825L8.16809 3.5625C8.08 3.32361 7.9208 3.11747 7.71193 2.97187C7.50306 2.82627 7.25457 2.74821 6.99996 2.74821C6.74535 2.74821 6.49686 2.82627 6.28799 2.97187C6.07913 3.11747 5.91992 3.32361 5.83184 3.5625L4.68246 6.6825L1.56246 7.83187C1.32357 7.91996 1.11743 8.07916 0.971833 8.28803C0.826231 8.4969 0.748169 8.74539 0.748169 9C0.748169 9.25461 0.826231 9.5031 0.971833 9.71197C1.11743 9.92084 1.32357 10.08 1.56246 10.1681L4.67996 11.3175L5.83184 14.4375C5.91992 14.6764 6.07913 14.8825 6.28799 15.0281C6.49686 15.1737 6.74535 15.2518 6.99996 15.2518C7.25457 15.2518 7.50306 15.1737 7.71193 15.0281C7.9208 14.8825 8.08 14.6764 8.16809 14.4375L9.31746 11.32L12.4375 10.1681C12.6763 10.08 12.8825 9.92084 13.0281 9.71197C13.1737 9.5031 13.2518 9.25461 13.2518 9C13.2518 8.74539 13.1737 8.4969 13.0281 8.28803C12.8825 8.07916 12.6763 7.91996 12.4375 7.83187ZM8.47621 10.0294C8.37441 10.0669 8.28196 10.1261 8.20524 10.2028C8.12852 10.2795 8.06936 10.3719 8.03184 10.4738L6.99996 13.2675L5.97059 10.4738C5.93307 10.3719 5.87391 10.2795 5.79719 10.2028C5.72047 10.1261 5.62802 10.0669 5.52621 10.0294L2.73246 9L5.52621 7.97062C5.62802 7.93311 5.72047 7.87395 5.79719 7.79723C5.87391 7.72051 5.93307 7.62805 5.97059 7.52625L6.99996 4.7325L8.02934 7.52625C8.06686 7.62805 8.12602 7.72051 8.20274 7.79723C8.27946 7.87395 8.37191 7.93311 8.47371 7.97062L11.2675 9L8.47621 10.0294ZM8.74996 2.5C8.74996 2.30109 8.82898 2.11032 8.96963 1.96967C9.11028 1.82902 9.30105 1.75 9.49996 1.75H10.25V1C10.25 0.801088 10.329 0.610322 10.4696 0.46967C10.6103 0.329018 10.801 0.25 11 0.25C11.1989 0.25 11.3896 0.329018 11.5303 0.46967C11.6709 0.610322 11.75 0.801088 11.75 1V1.75H12.5C12.6989 1.75 12.8896 1.82902 13.0303 1.96967C13.1709 2.11032 13.25 2.30109 13.25 2.5C13.25 2.69891 13.1709 2.88968 13.0303 3.03033C12.8896 3.17098 12.6989 3.25 12.5 3.25H11.75V4C11.75 4.19891 11.6709 4.38968 11.5303 4.53033C11.3896 4.67098 11.1989 4.75 11 4.75C10.801 4.75 10.6103 4.67098 10.4696 4.53033C10.329 4.38968 10.25 4.19891 10.25 4V3.25H9.49996C9.30105 3.25 9.11028 3.17098 8.96963 3.03033C8.82898 2.88968 8.74996 2.69891 8.74996 2.5ZM15.75 5.5C15.75 5.69891 15.6709 5.88968 15.5303 6.03033C15.3896 6.17098 15.1989 6.25 15 6.25H14.75V6.5C14.75 6.69891 14.6709 6.88968 14.5303 7.03033C14.3896 7.17098 14.1989 7.25 14 7.25C13.801 7.25 13.6103 7.17098 13.4696 7.03033C13.329 6.88968 13.25 6.69891 13.25 6.5V6.25H13C12.801 6.25 12.6103 6.17098 12.4696 6.03033C12.329 5.88968 12.25 5.69891 12.25 5.5C12.25 5.30109 12.329 5.11032 12.4696 4.96967C12.6103 4.82902 12.801 4.75 13 4.75H13.25V4.5C13.25 4.30109 13.329 4.11032 13.4696 3.96967C13.6103 3.82902 13.801 3.75 14 3.75C14.1989 3.75 14.3896 3.82902 14.5303 3.96967C14.6709 4.11032 14.75 4.30109 14.75 4.5V4.75H15C15.1989 4.75 15.3896 4.82902 15.5303 4.96967C15.6709 5.11032 15.75 5.30109 15.75 5.5Z" fill="#1FFFA5"/>
</g>
<defs>
<clipPath id="clip0_9_121">
<rect width="16" height="16" fill="white"/>
</clipPath>
</defs>
</svg>
