<svg width="22" height="22" viewBox="0 0 22 22" fill="none" xmlns="http://www.w3.org/2000/svg">
<path d="M21 11C21.0016 12.3172 20.7423 13.6216 20.2369 14.8379C19.7315 16.0542 18.9901 17.1584 18.0555 18.0865C17.1285 19.0118 16.0282 19.7453 14.8176 20.2452C13.607 20.7451 12.3098 21.0016 11 21C5.47701 21 1.00001 16.523 1.00001 11C0.99641 8.43587 1.98136 5.96903 3.75001 4.11251C4.68313 3.12774 5.8074 2.34376 7.05402 1.80858C8.30064 1.27339 9.64337 0.998254 11 1.00001C12.3098 0.998394 13.607 1.25487 14.8176 1.75478C16.0282 2.25469 17.1285 2.98824 18.0555 3.91351C18.9901 4.84165 19.7315 5.94579 20.2369 7.16211C20.7423 8.37844 21.0016 9.68286 21 11Z" stroke="#0A0F0D" stroke-width="2" stroke-linecap="round" stroke-linejoin="round"/>
<path d="M20.9999 10.9998C19.5409 10.9998 15.5159 10.4498 11.9134 12.0313C7.9999 13.7498 5.1664 16.4158 3.9314 18.0733" stroke="#0A0F0D" stroke-width="2" stroke-linecap="round" stroke-linejoin="round"/>
<path d="M7.25 1.72705C8.815 3.17155 12.23 6.84905 13.5 10.5001C14.77 14.1511 15.24 18.6401 15.53 19.9176" stroke="#0A0F0D" stroke-width="2" stroke-linecap="round" stroke-linejoin="round"/>
<path d="M1.0769 9.74986C2.9659 9.86386 7.9664 9.96636 11.1664 8.59986C14.3664 7.23336 17.1199 4.71986 18.0644 3.92236M1.7499 14.8064C2.6312 16.9392 4.22036 18.7034 6.2499 19.8019" stroke="#0A0F0D" stroke-width="2" stroke-linecap="round" stroke-linejoin="round"/>
<path d="M1.00001 11C0.99641 8.43587 1.98136 5.96903 3.75001 4.11251C4.68313 3.12774 5.8074 2.34376 7.05402 1.80858C8.30064 1.27339 9.64337 0.998254 11 1.00001M15 1.83201C16.139 2.3299 17.1752 3.03579 18.0555 3.91351C18.9901 4.84165 19.7315 5.94579 20.2369 7.16211C20.7423 8.37844 21.0016 9.68286 21 11C21 12.231 20.7775 13.4105 20.37 14.5M11 21C12.3098 21.0016 13.607 20.7451 14.8176 20.2452C16.0282 19.7453 17.1285 19.0118 18.0555 18.0865" stroke="#0A0F0D" stroke-width="2" stroke-linecap="round" stroke-linejoin="round"/>
</svg>
