<svg width="22" height="22" viewBox="0 0 22 22" fill="none" xmlns="http://www.w3.org/2000/svg">
<path fill-rule="evenodd" clip-rule="evenodd" d="M3.66502 21.5001C2.82652 21.5001 2.03002 21.1671 1.43002 20.5746C0.830017 19.9821 0.504517 19.1781 0.504517 18.3396V3.65464C0.504517 2.81614 0.837517 2.01964 1.43002 1.41964C2.02252 0.819641 2.82652 0.494141 3.66502 0.494141H18.35C19.1885 0.494141 19.985 0.827141 20.585 1.41964C21.185 2.01214 21.5105 2.81614 21.5105 3.65464V18.3396C21.5105 19.1781 21.1775 19.9746 20.585 20.5746C19.9925 21.1746 19.1885 21.5001 18.35 21.5001H3.66502ZM16.49 12.6351H14.27V19.9701H18.35C18.5643 19.9707 18.7766 19.929 18.9747 19.8472C19.1728 19.7655 19.3528 19.6454 19.5043 19.4939C19.6558 19.3424 19.7759 19.1624 19.8576 18.9643C19.9393 18.7662 19.9811 18.5539 19.9805 18.3396V3.65464C19.9807 3.44046 19.9387 3.22835 19.8568 3.03044C19.7749 2.83253 19.6548 2.65271 19.5034 2.50126C19.3519 2.34982 19.1721 2.22972 18.9742 2.14785C18.7763 2.06598 18.5642 2.02394 18.35 2.02414H3.66502C3.23295 2.02533 2.81891 2.19749 2.51339 2.50301C2.20787 2.80854 2.0357 3.22257 2.03452 3.65464V18.3396C2.0357 18.7717 2.20787 19.1857 2.51339 19.4913C2.81891 19.7968 3.23295 19.969 3.66502 19.9701H11.825V12.6351H9.38002V10.1901H11.825V8.87614C11.825 6.38614 13.037 5.29114 15.11 5.29114C16.0805 5.29114 16.6025 5.36164 16.85 5.39614L16.865 5.39764V7.73764H15.455C14.744 7.73764 14.408 8.04214 14.306 8.65564C14.2815 8.81545 14.27 8.97697 14.2715 9.13864V10.1841H16.8365L16.487 12.6291L16.49 12.6351Z" fill="#0A0F0D"/>
</svg>
